<svg width="28" height="32" viewBox="0 0 28 32" fill="none" xmlns="http://www.w3.org/2000/svg">
<path d="M26.207 16.8213C26.2088 15.959 27.3489 15.4521 26.8919 14.7195C26.435 13.987 25.5983 12.8043 24.8211 12.4236C24.0438 12.0428 23.0961 11.6554 22.2342 11.7417C21.3722 11.8281 21.3115 11.8962 20.6261 12.4236C19.9407 12.9509 18.9193 13.1719 18.6182 13.9804C18.317 14.7889 18.2498 17.2335 18.4242 18.0781C18.5986 18.9227 19.0076 19.7017 19.6046 20.3265C20.2016 20.9513 20.9628 21.3968 21.8016 21.6124V22.9201C21.8016 24.4519 21.1903 25.921 20.1021 27.0042C19.0139 28.0874 17.538 28.6959 15.9991 28.6959C14.4601 28.6959 12.9842 28.0874 11.896 27.0042C10.8078 25.921 10.1965 24.4519 10.1965 22.9201C10.2547 21.5449 10.5924 20.1958 11.1892 18.9542C11.7859 17.7126 12.6294 16.6044 13.6686 15.6964H13.5122C14.6183 14.9782 15.5304 14.0008 16.1685 12.8499C16.8066 11.699 17.1512 10.4098 17.1721 9.09549V4.45615C17.1721 3.53952 16.8063 2.66044 16.1551 2.01228C15.504 1.36413 14.6208 1 13.6999 1H11.9482C11.6413 1 11.3469 1.12138 11.1298 1.33743C10.9128 1.55348 10.7908 1.84651 10.7908 2.15205C10.7908 2.45759 10.9128 2.75062 11.1298 2.96667C11.3469 3.18272 11.6413 3.3041 11.9482 3.3041H13.6686C13.9756 3.3041 14.27 3.42548 14.487 3.64153C14.7041 3.85758 14.826 4.15061 14.826 4.45615V9.09549C14.8261 10.6178 14.2207 12.0783 13.1422 13.1576C12.0637 14.237 10.5998 14.8475 9.07041 14.8557C8.31046 14.8598 7.55714 14.7149 6.85346 14.4292C6.14979 14.1435 5.50954 13.7226 4.96926 13.1906C4.42899 12.6586 3.99929 12.0259 3.70468 11.3286C3.41007 10.6313 3.25632 9.88307 3.25223 9.12662V4.45615C3.25223 4.15061 3.37416 3.85758 3.59122 3.64153C3.80827 3.42548 4.10265 3.3041 4.40961 3.3041H6.0362C6.34315 3.3041 6.63754 3.18272 6.85459 2.96667C7.07164 2.75062 7.19358 2.45759 7.19358 2.15205C7.19358 1.84651 7.07164 1.55348 6.85459 1.33743C6.63754 1.12138 6.34315 1 6.0362 1H4.40961C3.49962 1.01632 2.63246 1.38765 1.99478 2.03404C1.35709 2.68043 0.999879 3.55021 1.00003 4.45615V9.09549C0.996648 10.3903 1.30777 11.6668 1.90689 12.8161C2.506 13.9655 3.37536 14.9536 4.44089 15.6964C5.47439 16.6071 6.31204 17.7166 6.90338 18.958C7.49472 20.1995 7.82753 21.5472 7.88175 22.9201C7.88175 23.9812 8.09171 25.0318 8.49964 26.0121C8.90757 26.9924 9.50549 27.8832 10.2593 28.6334C11.013 29.3837 11.9079 29.9789 12.8927 30.385C13.8775 30.791 14.9331 31 15.9991 31C17.065 31 18.1206 30.791 19.1054 30.385C20.0902 29.9789 20.9851 29.3837 21.7388 28.6334C22.4926 27.8832 23.0905 26.9924 23.4985 26.0121C23.9064 25.0318 24.1164 23.9812 24.1164 22.9201V21.6124C25.1086 21.3573 24.1927 20.3714 24.8211 19.5656C25.4494 18.7598 26.2049 17.8413 26.207 16.8213ZM22.9191 20.3265C22.4613 20.3265 19.3968 19.8188 19.0162 19.5656C18.6355 19.3124 16.1904 17.6592 18.3301 16.8213C15.9024 17.1692 18.9269 15.3027 19.0162 14.8557C19.1055 14.4088 20.9359 14.2846 21.2596 13.9624C21.5834 13.6402 21.9958 13.4207 22.4448 13.3318C22.8938 13.2429 23.3593 13.2886 23.7822 13.4629C24.2052 13.6373 24.5667 13.9327 24.8211 14.3116C25.0754 14.6905 25.2112 15.1359 25.2112 15.5917C25.2112 15.8942 26.3233 16.5417 26.207 16.8213C26.0907 17.1008 25.189 17.6641 24.974 17.8781C24.7591 18.0921 25.492 18.9464 25.2112 19.0622C24.9303 19.178 23.2231 20.3265 22.9191 20.3265Z" fill="#000066"/>
<path d="M26.207 16.8213C26.2088 15.959 27.3489 15.4521 26.8919 14.7195C26.435 13.987 25.5983 12.8043 24.8211 12.4236C24.0438 12.0428 23.0961 11.6554 22.2342 11.7417C21.3722 11.8281 21.3115 11.8962 20.6261 12.4236C19.9407 12.9509 18.9193 13.1719 18.6182 13.9804C18.317 14.7889 18.2498 17.2335 18.4242 18.0781C18.5986 18.9227 19.0076 19.7017 19.6046 20.3265C20.2016 20.9513 20.9628 21.3968 21.8016 21.6124V22.9201C21.8016 24.4519 21.1903 25.921 20.1021 27.0042C19.0139 28.0874 17.538 28.6959 15.9991 28.6959C14.4601 28.6959 12.9842 28.0874 11.896 27.0042C10.8078 25.921 10.1965 24.4519 10.1965 22.9201C10.2547 21.5449 10.5924 20.1958 11.1892 18.9542C11.7859 17.7126 12.6294 16.6044 13.6686 15.6964H13.5122C14.6183 14.9782 15.5304 14.0008 16.1685 12.8499C16.8066 11.699 17.1512 10.4098 17.1721 9.09549V4.45615C17.1721 3.53952 16.8063 2.66044 16.1551 2.01228C15.504 1.36413 14.6208 1 13.6999 1H11.9482C11.6413 1 11.3469 1.12138 11.1298 1.33743C10.9128 1.55348 10.7908 1.84651 10.7908 2.15205C10.7908 2.45759 10.9128 2.75062 11.1298 2.96667C11.3469 3.18272 11.6413 3.3041 11.9482 3.3041H13.6686C13.9756 3.3041 14.27 3.42548 14.487 3.64153C14.7041 3.85758 14.826 4.15061 14.826 4.45615V9.09549C14.8261 10.6178 14.2207 12.0783 13.1422 13.1576C12.0637 14.237 10.5998 14.8475 9.07041 14.8557M26.207 16.8213C26.2049 17.8413 25.4494 18.7598 24.8211 19.5656C24.1927 20.3714 25.1086 21.3574 24.1164 21.6124V22.9201C24.1164 23.9812 23.9064 25.0318 23.4985 26.0121C23.0905 26.9924 22.4926 27.8832 21.7388 28.6334C20.9851 29.3837 20.0902 29.9789 19.1054 30.385C18.1206 30.791 17.065 31 15.9991 31C14.9331 31 13.8775 30.791 12.8927 30.385C11.9079 29.9789 11.013 29.3837 10.2593 28.6334C9.50549 27.8832 8.90757 26.9924 8.49964 26.0121C8.09171 25.0318 7.88175 23.9812 7.88175 22.9201C7.82753 21.5472 7.49472 20.1995 6.90338 18.958C6.31204 17.7166 5.47439 16.6071 4.44089 15.6964C3.37536 14.9536 2.506 13.9655 1.90689 12.8161C1.30777 11.6668 0.996648 10.3903 1.00003 9.09549V4.45615C0.999879 3.55021 1.35709 2.68043 1.99478 2.03404C2.63246 1.38765 3.49962 1.01632 4.40961 1H6.0362C6.34315 1 6.63754 1.12138 6.85459 1.33743C7.07164 1.55348 7.19358 1.84651 7.19358 2.15205C7.19358 2.45759 7.07164 2.75062 6.85459 2.96667C6.63754 3.18272 6.34315 3.3041 6.0362 3.3041H4.40961C4.10265 3.3041 3.80827 3.42548 3.59122 3.64153C3.37416 3.85758 3.25223 4.15061 3.25223 4.45615V9.12662C3.25632 9.88307 3.41007 10.6313 3.70468 11.3286C3.99929 12.0259 4.42899 12.6586 4.96926 13.1906C5.50954 13.7226 6.14979 14.1435 6.85346 14.4292C7.55714 14.7149 8.31046 14.8598 9.07041 14.8557M26.207 16.8213C26.3233 16.5417 25.2112 15.8942 25.2112 15.5917C25.2112 15.1359 25.0754 14.6905 24.8211 14.3116C24.5667 13.9327 24.2052 13.6373 23.7822 13.4629C23.3593 13.2886 22.8938 13.2429 22.4448 13.3318C21.9958 13.4207 21.5834 13.6402 21.2596 13.9624C20.9359 14.2846 19.1055 14.4088 19.0162 14.8557C18.9269 15.3027 15.9024 17.1692 18.3301 16.8213C16.1904 17.6592 18.6355 19.3124 19.0162 19.5656C19.3968 19.8188 22.4613 20.3265 22.9191 20.3265C23.2231 20.3265 24.9303 19.178 25.2112 19.0622C25.492 18.9464 24.7591 18.0921 24.974 17.8781C25.189 17.6641 26.0907 17.1008 26.207 16.8213ZM9.07041 14.8557V15.6964" stroke="#000066" stroke-width="0.5"/>
</svg>
