<svg width="19" height="18" viewBox="0 0 19 18" fill="none" xmlns="http://www.w3.org/2000/svg">
<path d="M14.192 0C15.466 0 16.6915 0.5035 17.593 1.40695C18.4955 2.3085 19 3.5245 19 4.7975V12.3025C19 14.953 16.8435 17.1 14.192 17.1H4.807C2.15555 17.1 0 14.953 0 12.3025V4.7975C0 2.147 2.14605 0 4.807 0H14.192ZM15.2665 4.94C15.067 4.92955 14.877 4.997 14.7336 5.13L10.45 8.55C9.899 9.00695 9.10955 9.00695 8.55 8.55L4.275 5.13C3.97955 4.9115 3.57105 4.94 3.325 5.1965C3.0685 5.453 3.04 5.8615 3.25755 6.1465L3.382 6.27L7.7045 9.6425C8.2365 10.0605 8.88155 10.2885 9.557 10.2885C10.2306 10.2885 10.887 10.0605 11.418 9.6425L15.7035 6.213L15.7795 6.137C16.0065 5.8615 16.0066 5.4625 15.7691 5.187C15.637 5.04545 15.4555 4.959 15.2665 4.94Z" fill="#000066"/>
</svg>
