<svg width="22" height="21" viewBox="0 0 22 21" fill="none" xmlns="http://www.w3.org/2000/svg">
<path fill-rule="evenodd" clip-rule="evenodd" d="M10.5928 0.52197C10.4049 0.573593 10.2141 0.686106 10.0889 0.819194C10.0293 0.882587 8.85861 2.65676 7.48746 4.76179C6.0218 7.01191 4.96678 8.58937 4.92724 8.58969C4.89028 8.59002 4.04398 8.43265 3.04656 8.23997C0.988519 7.84237 0.833953 7.83153 0.484408 8.06049C0.212277 8.23876 0.0330001 8.5409 0.00194699 8.87348C-0.0191342 9.09962 0.111202 9.61519 1.38294 14.3364C2.15529 17.2037 2.81947 19.6435 2.85893 19.7582C2.89838 19.8729 3.01135 20.0531 3.11002 20.1585C3.45239 20.5246 2.88648 20.4996 10.8333 20.4996C18.7802 20.4996 18.2143 20.5246 18.5566 20.1585C18.6553 20.0531 18.7683 19.8729 18.8077 19.7582C18.8472 19.6435 19.5114 17.2037 20.2837 14.3364C21.5555 9.61519 21.6858 9.09962 21.6647 8.87348C21.6161 8.35257 21.2183 7.94237 20.7254 7.90493C20.5449 7.89121 19.9803 7.98199 18.653 8.23821C17.6497 8.43186 16.7935 8.59002 16.7505 8.58974C16.6972 8.58932 16.352 8.09724 15.6698 7.04894C11.5866 0.775171 11.5911 0.781798 11.369 0.653761C11.1419 0.522758 10.8007 0.464833 10.5928 0.52197Z" fill="url(#paint0_linear_1770_5688)"/>
<defs>
<linearGradient id="paint0_linear_1770_5688" x1="-33.4549" y1="-21.0127" x2="38.8401" y2="51.617" gradientUnits="userSpaceOnUse">
<stop stop-color="#FFCF00"/>
<stop offset="0.635417" stop-color="#CA8114"/>
</linearGradient>
</defs>
</svg>
